HIERARCHY
ROOT Hips
{
 OFFSET 0.000000 0.000000 0.000000
 CHANNELS 6 Xposition Yposition Zposition Yrotation Xrotation Zrotation
 JOINT Chest
 {
  OFFSET 0.000000 9.303000 0.001900
  CHANNELS 3 Yrotation Xrotation Zrotation
  JOINT Chest2
  {
   OFFSET 0.000000 9.301100 -0.003900
   CHANNELS 3 Yrotation Xrotation Zrotation
   JOINT Chest3
   {
    OFFSET 0.000000 9.262800 0.000000
    CHANNELS 3 Yrotation Xrotation Zrotation
    JOINT Chest4
    {
     OFFSET 0.000000 9.253300 0.000000
     CHANNELS 3 Yrotation Xrotation Zrotation
     JOINT Neck
     {
      OFFSET 0.000000 14.010300 0.000000
      CHANNELS 3 Yrotation Xrotation Zrotation
      JOINT Head
      {
       OFFSET 0.000000 8.657600 -0.008300
       CHANNELS 3 Yrotation Xrotation Zrotation
       End Site
       {
        OFFSET 0.000000 16.540200 -0.004400
       }
      }
     }
     JOINT RightCollar
     {
      OFFSET -2.834100 9.267700 0.000000
      CHANNELS 3 Yrotation Xrotation Zrotation
      JOINT RightShoulder
      {
       OFFSET -13.135200 0.000000 0.000000
       CHANNELS 3 Yrotation Xrotation Zrotation
       JOINT RightElbow
       {
        OFFSET 0.000000 -28.893500 0.000000
        CHANNELS 3 Yrotation Xrotation Zrotation
        JOINT RightWrist
        {
         OFFSET 0.000000 -23.344000 0.000000
         CHANNELS 3 Yrotation Xrotation Zrotation
         End Site
         {
          OFFSET 0.000000 -17.223000 0.000000
         }
        }
       }
      }
     }
     JOINT LeftCollar
     {
      OFFSET 2.834100 9.267700 0.000000
      CHANNELS 3 Yrotation Xrotation Zrotation
      JOINT LeftShoulder
      {
       OFFSET 13.135200 0.000000 0.000000
       CHANNELS 3 Yrotation Xrotation Zrotation
       JOINT LeftElbow
       {
        OFFSET 0.000000 -28.893500 0.000000
        CHANNELS 3 Yrotation Xrotation Zrotation
        JOINT LeftWrist
        {
         OFFSET 0.000000 -23.344000 0.000000
         CHANNELS 3 Yrotation Xrotation Zrotation
         End Site
         {
          OFFSET 0.000000 -17.223000 0.000000
         }
        }
       }
      }
     }
    }
   }
  }
 }
 JOINT RightHip
 {
  OFFSET -7.547200 -0.009500 -0.001000
  CHANNELS 3 Yrotation Xrotation Zrotation
  JOINT RightKnee
  {
   OFFSET 0.000000 -39.762800 0.000900
   CHANNELS 3 Yrotation Xrotation Zrotation
   JOINT RightAnkle
   {
    OFFSET 0.000000 -38.588200 0.001600
    CHANNELS 3 Yrotation Xrotation Zrotation
    JOINT RightToe
    {
     OFFSET 0.000000 -4.693300 10.419700
     CHANNELS 3 Yrotation Xrotation Zrotation
     End Site
     {
      OFFSET 0.000000 -1.379900 5.669300
     }
    }
   }
  }
 }
 JOINT LeftHip
 {
  OFFSET 7.547200 -0.009500 -0.001000
  CHANNELS 3 Yrotation Xrotation Zrotation
  JOINT LeftKnee
  {
   OFFSET 0.000000 -39.762800 0.000900
   CHANNELS 3 Yrotation Xrotation Zrotation
   JOINT LeftAnkle
   {
    OFFSET 0.000000 -38.588200 0.001600
    CHANNELS 3 Yrotation Xrotation Zrotation
    JOINT LeftToe
    {
     OFFSET 0.000000 -4.693300 10.419700
     CHANNELS 3 Yrotation Xrotation Zrotation
     End Site
     {
      OFFSET 0.000000 -1.379900 5.669300
     }
    }
   }
  }
 }
}
MOTION
Frames: 7
Frame Time: 0.008333
0.000000 82.880600 0.000000 0.000000 -5.767877 0.000000 0.000000 11.653817 0.000000 0.000000 -5.885947 0.000000 0.000000 -0.000000 0.000000 0.000000 -0.000000 0.000000 0.000000 12.528835 0.000000 0.000000 0.711642 0.000000 0.000000 -0.000000 0.000000 0.000000 0.000000 -90.000000 0.000000 -2.309062 0.000000 0.000000 2.309062 0.000000 0.000000 -0.000000 0.000000 0.000000 -0.000000 90.000000 0.000000 -2.309062 0.000000 0.000000 2.309062 0.000000 0.000000 8.520406 0.000000 0.000000 1.905762 0.000000 -0.000000 -4.658285 0.000000 0.000000 -0.000000 0.000000 0.000000 8.520406 0.000000 0.000000 1.905762 0.000000 -0.000000 -4.658285 0.000000 0.000000 -0.000000 0.000000
4.014260 45.995273 4.079680 163.579675 -13.177011 0.136882 3.357482 8.582544 0.318825 0.190047 0.470136 0.021408 0.325355 0.828031 0.040998 3.198539 8.030390 0.600031 -1.140639 23.228390 0.445802 -1.335718 -0.759708 0.745855 4.270261 3.553948 -3.975633 2.289419 -13.267289 -4.499079 -23.457493 -79.805196 34.122313 -9.534929 -9.579457 -23.287516 -11.198756 -0.189890 -4.882923 10.657115 -14.750785 11.416716 32.066107 -71.218286 -47.603841 5.256587 -5.152627 15.093763 -13.473176 -74.881289 12.022623 -113.835951 83.683263 -115.335254 -11.397092 -7.916024 -0.296158 0.174432 -0.354104 0.082803 0.294624 -73.841412 22.852904 85.798032 78.506120 83.038542 -11.901198 -7.697964 2.162896 0.124041 0.483492 0.060002
4.007708 45.995772 4.072777 163.605288 -13.209046 0.183315 3.327246 8.610040 0.267039 0.190365 0.471558 0.020505 0.325312 0.827605 0.041136 3.199423 8.027529 0.602566 -1.144427 23.236720 0.447890 -1.345837 -0.750785 0.761367 4.270003 3.558662 -3.974934 2.289739 -13.255781 -4.499173 -23.430286 -79.787685 34.094962 -9.525259 -9.571643 -23.299264 -11.196498 -0.178303 -4.880408 10.638774 -14.735275 11.422172 32.050652 -71.207018 -47.619133 5.254207 -5.112166 15.056322 -13.274736 -74.863202 11.816261 -113.731250 83.660577 -115.206146 -11.839271 -7.939098 -0.244277 0.079720 -0.340187 0.053166 0.449273 -73.811386 22.659400 85.819917 78.500965 83.062826 -11.912924 -7.676920 2.161377 0.133276 0.460680 0.061614
4.002799 45.996515 4.065341 163.608014 -13.247220 0.226798 3.321545 8.644845 0.222717 0.188441 0.472832 0.020501 0.325154 0.826886 0.041231 3.202031 8.025144 0.604296 -1.149558 23.243640 0.456040 -1.352930 -0.742041 0.767066 4.269659 3.564328 -3.972573 2.285989 -13.246217 -4.499982 -23.381292 -79.771155 34.050173 -9.516827 -9.563484 -23.308941 -11.197758 -0.170232 -4.878341 10.629127 -14.721195 11.426996 32.029839 -71.193903 -47.634361 5.250204 -5.135305 15.084361 -13.085532 -74.837910 11.647226 -113.606646 83.635398 -115.057835 -12.299615 -7.982884 -0.181621 -0.042188 -0.303832 0.009595 0.598706 -73.773231 22.498389 85.834910 78.499896 83.077423 -11.901032 -7.621387 2.167956 0.124023 0.402086 0.055062
4.008346 45.995501 4.068959 163.594396 -13.236603 0.193732 3.342165 8.628160 0.256230 0.186341 0.472970 0.020840 0.325110 0.826102 0.041237 3.202112 8.021033 0.605767 -1.157156 23.254218 0.465266 -1.348424 -0.741130 0.759978 4.271294 3.572883 -3.971039 2.286255 -13.236821 -4.497601 -23.225146 -79.733688 33.895870 -9.506317 -9.581148 -23.311424 -11.195825 -0.162324 -4.878258 10.626272 -14.718011 11.427931 31.976809 -71.171616 -47.623878 5.242784 -5.133264 15.087307 -13.213562 -74.840022 11.780443 -113.697860 83.643691 -115.166269 -12.204394 -7.980719 -0.194560 0.014534 -0.310191 0.025983 0.488195 -73.786201 22.628802 85.844098 78.501928 83.087509 -11.891053 -7.634687 2.172697 0.113757 0.414476 0.049665
4.009901 45.994280 4.073153 163.608409 -13.214868 0.177685 3.329360 8.602860 0.265280 0.187027 0.471987 0.021154 0.325268 0.825489 0.041232 3.203714 8.015838 0.605320 -1.159238 23.264949 0.470485 -1.356704 -0.725468 0.771712 4.269884 3.580631 -3.967996 2.285512 -13.224732 -4.496719 -23.222859 -79.736826 33.894214 -9.488745 -9.548121 -23.323804 -11.187718 -0.150458 -4.871476 10.620147 -14.709516 11.424951 31.940712 -71.150259 -47.631498 5.238692 -5.091453 15.055538 -13.295882 -74.857827 11.842103 -113.717020 83.647929 -115.195723 -12.130934 -7.947875 -0.215351 0.071933 -0.343128 0.045752 0.431765 -73.809209 22.674589 85.823365 78.498305 83.068657 -11.918881 -7.678757 2.165345 0.135406 0.464363 0.058648
4.007385 45.994502 4.070852 163.616578 -13.224112 0.199032 3.317183 8.609501 0.240262 0.188547 0.472676 0.021780 0.325479 0.825023 0.041249 3.203222 8.012251 0.605031 -1.164484 23.275924 0.474599 -1.363187 -0.712203 0.777185 4.268238 3.584508 -3.965491 2.289803 -13.203934 -4.497632 -23.132728 -79.728178 33.806985 -9.467908 -9.535561 -23.336145 -11.181504 -0.143711 -4.869775 10.596138 -14.693916 11.422086 31.905221 -71.130768 -47.616406 5.231171 -5.091323 15.055109 -13.220586 -74.851577 11.772630 -113.611380 83.634187 -115.073710 -12.317171 -7.991676 -0.187840 -0.010029 -0.304593 0.014210 0.507863 -73.799276 22.589043 85.779257 78.500103 83.017387 -11.900873 -7.619466 2.176464 0.113722 0.412516 0.051773
